{
    "asset" : {
        "generator" : "Khronos glTF Blender I/O v1.7.33",
        "version" : "2.0"
    },
    "scene" : 0,
    "scenes" : [
        {
            "name" : "Scene",
            "nodes" : [
                0
            ]
        }
    ],
    "nodes" : [
        {
            "mesh" : 0,
            "name" : "Cylinder"
        }
    ],
    "meshes" : [
        {
            "name" : "Cylinder",
            "primitives" : [
                {
                    "attributes" : {
                        "POSITION" : 0,
                        "NORMAL" : 1,
                        "TEXCOORD_0" : 2
                    },
                    "indices" : 3
                }
            ]
        }
    ],
    "accessors" : [
        {
            "bufferView" : 0,
            "componentType" : 5126,
            "count" : 195,
            "max" : [
                0.01798141747713089,
                1,
                0.0179813951253891
            ],
            "min" : [
                -0.017981354147195816,
                0,
                -0.01798137277364731
            ],
            "type" : "VEC3"
        },
        {
            "bufferView" : 1,
            "componentType" : 5126,
            "count" : 195,
            "type" : "VEC3"
        },
        {
            "bufferView" : 2,
            "componentType" : 5126,
            "count" : 195,
            "type" : "VEC2"
        },
        {
            "bufferView" : 3,
            "componentType" : 5123,
            "count" : 558,
            "type" : "SCALAR"
        }
    ],
    "bufferViews" : [
        {
            "buffer" : 0,
            "byteLength" : 2340,
            "byteOffset" : 0
        },
        {
            "buffer" : 0,
            "byteLength" : 2340,
            "byteOffset" : 2340
        },
        {
            "buffer" : 0,
            "byteLength" : 1560,
            "byteOffset" : 4680
        },
        {
            "buffer" : 0,
            "byteLength" : 1116,
            "byteOffset" : 6240
        }
    ],
    "buffers" : [
        {
            "byteLength" : 7356,
            "uri" : "data:application/octet-stream;base64,"
        }
    ]
}
